<?xml version="1.0" standalone="no"?>
<!DOCTYPE svg PUBLIC "-//W3C//DTD SVG 1.1//EN" "http://www.w3.org/Graphics/SVG/1.1/DTD/svg11.dtd" >
<svg xmlns="http://www.w3.org/2000/svg">
<metadata></metadata>
<defs>
<font id="hamburger_sandwitchregular" horiz-adv-x="1784" >
<font-face units-per-em="2048" ascent="1638" descent="-410" />
<missing-glyph horiz-adv-x="1272" />
<glyph horiz-adv-x="0" />
<glyph unicode="&#xd;" horiz-adv-x="0" />
<glyph unicode=" "  horiz-adv-x="1272" />
<glyph unicode="&#x09;" horiz-adv-x="1272" />
<glyph unicode="&#xa0;" horiz-adv-x="1272" />
<glyph unicode="!" horiz-adv-x="722" d="M210 86q0 47 35.5 82.5t84.5 35.5t83.5 -35.5t34.5 -82.5q0 -49 -34.5 -84t-83.5 -35t-84.5 35t-35.5 84zM238 355v1188h184v-1188h-184z" />
<glyph unicode="&#x22;" horiz-adv-x="987" d="M185 1543h200l-37 -671h-126zM514 1543h201l-38 -671h-125z" />
<glyph unicode="#" horiz-adv-x="1527" d="M51 430v163h236l55 316h-214v165h243l73 397h159l-75 -397h254l72 397h161l-71 -397h189v-165h-220l-55 -316h206v-163h-239l-77 -430h-157l77 430h-252l-82 -430h-153l74 430h-204zM446 593h253l55 316h-251z" />
<glyph unicode="$" horiz-adv-x="1284" d="M102 397l185 39q27 -134 92 -200q69 -73 200 -89v615l-72 37q-145 71 -209 142q-88 96 -88 233q0 153 108 272t261 131v184h102v-184q236 -22 352 -238l-163 -92q-59 112 -189 151v-481q401 -173 401 -471q0 -167 -118 -311.5t-283 -167.5v-195h-102v195 q-179 4 -314 127.5t-163 302.5zM389 1188q0 -145 190 -222v432q-81 -12 -135.5 -71t-54.5 -139zM681 159q94 22 155 101.5t61 177.5q0 163 -216 277v-556z" />
<glyph unicode="%" horiz-adv-x="1659" d="M35 1225q0 145 106 248.5t254 103.5q147 0 254 -103.5t107 -248.5t-107 -248t-254 -103q-145 0 -252.5 103t-107.5 248zM157 1225q0 -94 70.5 -161t167.5 -67q96 0 166.5 67t70.5 161t-70.5 162t-166.5 68t-167 -67.5t-71 -162.5zM228 18l903 1559l92 -53l-901 -1557z M697 318q0 145 106 248.5t253 103.5t254.5 -103.5t107.5 -248.5t-108 -248t-254 -103q-145 0 -252 103t-107 248zM819 318q0 -94 70.5 -161t166.5 -67t167 67t71 161t-70.5 161t-167.5 67q-96 0 -166.5 -67t-70.5 -161z" />
<glyph unicode="&#x26;" horiz-adv-x="1643" d="M108 422q0 134 81 238q57 75 190 171l96 70q-171 179 -171 338q0 157 100.5 247.5t257.5 90.5q147 0 249 -85q106 -90 106 -237q0 -116 -90 -222q-59 -67 -191 -163l322 -389l181 208l124 -125l-189 -222l275 -342h-237l-167 208q-206 -242 -464 -241 q-196 0 -334.5 129.5t-138.5 325.5zM289 424q0 -110 88 -197.5t198 -87.5q150 1 356 205l-344 418l-18 -12q-132 -88 -180 -135q-100 -94 -100 -191zM485 1261q0 -73 92 -193l51 -65l26 16q184 124 184 238q0 81 -51 125t-129 44q-71 0 -122 -46.5t-51 -118.5z" />
<glyph unicode="'" horiz-adv-x="657" d="M185 1543h200l-37 -671h-126z" />
<glyph unicode="(" horiz-adv-x="687" d="M116 630q0 613 214 1027l151 -114q-177 -369 -177 -913t177 -913l-151 -112q-214 416 -214 1025z" />
<glyph unicode=")" horiz-adv-x="757" d="M116 -283q177 369 177 913t-177 913l153 114q212 -414 212 -1027q0 -609 -212 -1025z" />
<glyph unicode="*" horiz-adv-x="1026" d="M130 1125l172 100l-170 102l62 116l183 -100v200h141v-194l165 98l73 -120l-175 -102l175 -102l-73 -120l-165 102v-196h-141v198l-179 -100z" />
<glyph unicode="+" horiz-adv-x="1403" d="M67 436v177h438v436h174v-436h436v-177h-436v-436h-174v436h-438z" />
<glyph unicode="," horiz-adv-x="718" d="M110 -320l226 563l159 -62l-271 -548z" />
<glyph unicode="-" horiz-adv-x="999" d="M116 579v153h450v-153h-450z" />
<glyph unicode="." horiz-adv-x="388" d="M179 86q0 47 34 82.5t83 35.5t84.5 -35.5t35.5 -82.5q0 -49 -35 -84t-85 -35q-49 0 -83 35t-34 84z" />
<glyph unicode="/" horiz-adv-x="1144" d="M65 -192l852 1969l147 -65l-854 -1969z" />
<glyph unicode="0" horiz-adv-x="1551" d="M53 772q0 295 120 522q149 283 418 283q271 0 420 -283q120 -227 120 -522q0 -291 -122 -521q-149 -285 -418 -284q-269 0 -418 284q-120 230 -120 521zM238 774q0 -218 72 -397q98 -238 281 -238q185 0 281 238q74 179 74 397t-74 400q-96 240 -281 240 q-183 0 -281 -240q-73 -183 -72 -400z" />
<glyph unicode="1" horiz-adv-x="1046" d="M251 1369l108 174h346v-1543h-185v1369h-269z" />
<glyph unicode="2" horiz-adv-x="1321" d="M92 0l676 829q137 169 137 276q0 120 -91 207.5t-211 87.5q-118 0 -204.5 -82.5t-94.5 -200.5h-192q24 210 153.5 335t337.5 125q200 0 343.5 -132.5t143.5 -331.5q0 -177 -116 -316l-507 -620h623v-177h-998z" />
<glyph unicode="3" horiz-adv-x="1341" d="M108 381h187q14 -110 102 -181q82 -65 196 -65q128 0 212 87.5t84 215.5q0 147 -91 228.5t-234 69.5v161q302 0 302 248q0 116 -75.5 190.5t-191.5 74.5q-104 0 -173 -61t-84 -161h-191q57 389 454 389q189 0 314 -110q132 -118 132 -307q0 -238 -197 -347 q220 -104 220 -383q0 -212 -140.5 -337.5t-354.5 -125.5q-187 0 -324 114.5t-147 299.5z" />
<glyph unicode="4" horiz-adv-x="1293" d="M14 226l946 1384v-1217h177v-167h-177v-226h-184v226h-762zM338 393h438v638h-4z" />
<glyph unicode="5" horiz-adv-x="1307" d="M61 238l143 135q35 -96 136.5 -163t205.5 -67q157 0 265 111t108 268q0 149 -109 258t-258 109q-183 0 -289 -137h-37l237 791h619v-174h-485l-98 -318l110 5q216 12 359 -157q136 -159 136 -383q0 -242 -165 -395.5t-407 -153.5q-145 0 -274.5 72.5t-196.5 198.5z" />
<glyph unicode="6" horiz-adv-x="1425" d="M82 461q0 181 167 407l527 709l139 -95l-410 -557l4 -4q73 37 151 37q187 0 316 -146.5t129 -336.5q0 -212 -149 -360t-359 -148q-204 0 -359.5 146t-155.5 348zM267 465q0 -134 97 -230t229 -96t230 93.5t98 223.5q0 139 -100 235t-228 96q-126 0 -226 -98t-100 -224z " />
<glyph unicode="7" horiz-adv-x="1295" d="M96 59l799 1310h-799v174h1112l-963 -1576z" />
<glyph unicode="8" horiz-adv-x="1341" d="M108 430q0 128 64 229t179 142q-202 114 -202 346q0 187 127.5 308.5t314.5 121.5t315.5 -122t128.5 -308q0 -232 -204 -346q118 -41 181.5 -142t63.5 -229q0 -208 -143 -340q-137 -124 -342 -123q-202 0 -340 123q-143 132 -143 340zM293 430q0 -116 92 -203.5 t206 -87.5q116 0 208 87.5t92 203.5q0 122 -90 206.5t-210 84.5q-118 0 -208 -84.5t-90 -206.5zM330 1147q0 -92 83.5 -176.5t177.5 -84.5q96 0 179.5 84.5t83.5 176.5q0 110 -78.5 188.5t-184.5 78.5q-104 0 -182.5 -78.5t-78.5 -188.5z" />
<glyph unicode="9" horiz-adv-x="1398" d="M106 1068q0 212 149 360.5t362 148.5q202 0 358 -146.5t156 -346.5q0 -183 -169 -409l-526 -708l-140 96l413 556l-4 3q-57 -29 -149 -29q-189 0 -320 147q-130 139 -130 328zM291 1082q0 -134 102 -229t226 -95q143 0 235 96t92 228q0 124 -95 223t-221 99 q-137 0 -238 -95.5t-101 -226.5z" />
<glyph unicode=":" horiz-adv-x="638" d="M179 86q0 47 34 82.5t83 35.5t84.5 -35.5t35.5 -82.5q0 -49 -35 -84t-85 -35q-49 0 -83 35t-34 84zM179 868q0 49 34 84.5t83 35.5t84.5 -35.5t35.5 -84.5t-35 -83.5t-85 -34.5q-49 0 -83 34.5t-34 83.5z" />
<glyph unicode=";" horiz-adv-x="700" d="M94 -320l226 563l159 -62l-273 -548zM275 868q0 49 34.5 84.5t83.5 35.5t84 -35.5t35 -84.5t-35 -83.5t-84 -34.5t-83.5 34.5t-34.5 83.5z" />
<glyph unicode="&#x3c;" horiz-adv-x="1509" d="M67 454v143l1048 422v-192l-785 -303l785 -302v-193z" />
<glyph unicode="=" horiz-adv-x="1508" d="M67 259v177h1048v-177h-1048zM67 613v176h1048v-176h-1048z" />
<glyph unicode="&#x3e;" horiz-adv-x="1484" d="M67 29v193l787 302l-787 303v192l1048 -422v-143z" />
<glyph unicode="?" horiz-adv-x="1105" d="M106 1229q-8 145 106 250q112 98 261 98q155 0 262 -104.5t107 -259.5q0 -157 -112 -253q-65 -57 -253 -114q-149 -47 -149 -149q0 -63 41 -105t102 -42q65 0 106.5 45t39.5 112h186q6 -132 -96 -231t-236 -99q-137 0 -233.5 95t-96.5 233q0 163 134 243q124 53 247 104 q134 59 134 169q0 82 -53 131.5t-136 49.5q-73 0 -124.5 -51t-51.5 -124q0 -22 11 -67h-192zM351 86q0 47 35.5 82.5t84.5 35.5t83.5 -35.5t34.5 -82.5q0 -49 -34.5 -84t-83.5 -35t-84.5 35t-35.5 84z" />
<glyph unicode="@" horiz-adv-x="1975" d="M75 772q0 344 225.5 574.5t555.5 230.5q281 0 481 -179q230 -202 230 -471q0 -267 -128 -434q-141 -185 -314 -177q-92 2 -112 126q-126 -126 -279 -126q-135 0 -239 111t-104 268q0 194 114 336q122 151 304 151q161 0 273 -145l27 125h146l-102 -526q-16 -86 -16 -112 q0 -63 45 -63q73 0 146.5 123t73.5 270q0 253 -156 406.5t-396 153.5q-257 0 -434.5 -187.5t-177.5 -454.5q0 -277 192 -462q187 -179 456 -178q262 0 380 98l154 -124q-132 -69 -230 -98q-139 -41 -322 -41q-334 0 -563.5 229.5t-229.5 575.5zM552 709q0 -94 56 -164 t148 -70q134 0 210 104q67 91 67 230q0 100 -57 156t-155 56q-118 0 -197 -100q-73 -92 -72 -212z" />
<glyph unicode="A" d="M-106 501q10 90 141 90l254 2v438q0 277 159 451q165 183 440 183t439 -183q157 -175 157 -451v-1035h-202v410h-789v-410h-204v410h-260q-126 0 -135 95zM493 593h789v367q0 514 -394 515q-395 0 -395 -515v-367z" />
<glyph unicode="B" horiz-adv-x="1411" d="M-14 -4v1636h201q346 0 445 -10q226 -24 336 -110q134 -106 134 -330q0 -94 -48 -181q-49 -92 -129 -129v-4q141 -26 234.5 -147.5t93.5 -266.5q0 -230 -177 -352q-153 -106 -393 -106h-697zM190 179h472h3q384 0 384 288q0 265 -388 265h-29h-16q-170 0 -182 83 q2 27 16 47q31 49 108 57q137 0 231 55q120 69 120 206q0 157 -102 220q-79 49 -243 49h-374v-1270z" />
<glyph unicode="C" horiz-adv-x="1504" d="M8 838q0 363 254 612.5t616 249.5q232 0 412 -110q84 -63 84 -129q1 -21 -9 -39q-27 -35 -77 -36q-41 0 -90 30q-104 90 -340 98q-271 0 -458.5 -196.5t-187.5 -471.5q0 -273 185 -465q187 -198 457 -198q63 2 120 11q134 24 210 81q45 33 86 33q47 0 81 -41 q14 -24 14 -51q0 -61 -75 -106q-192 -114 -430 -114q-351 0 -601.5 245.5t-250.5 596.5z" />
<glyph unicode="D" horiz-adv-x="1669" d="M6 -4v1636h338q399 0 648 -201q271 -217 271 -608q0 -403 -269 -623q-249 -204 -656 -204h-332zM210 183h71q348 0 546 137q231 161 231 493q0 334 -231 495q-198 137 -546 137h-71v-1262z" />
<glyph unicode="E" horiz-adv-x="1804" d="M-132 579q10 90 142 91h288q-12 58 -15 112q-2 33 -2 65q1 318 215 559q236 265 598 292q9 1 18 1q107 0 115 -91q-9 -96 -120 -96h-13q-273 -18 -450 -228q-161 -191 -160 -433q0 -25 1 -50q6 -67 24 -131h820q17 2 33 2q103 0 111 -93q-9 -97 -109 -97q-11 0 -23 1 h-752q94 -147 244 -230q137 -74 292 -73q22 0 45 1q71 14 128 29q141 39 194 85q47 39 91 39q45 -1 76 -36q18 -26 18 -55q0 -57 -67 -104q-187 -128 -422 -143q-32 -2 -62 -2q-231 0 -432 118q-227 134 -335 371h-355q-126 0 -136 96z" />
<glyph unicode="F" horiz-adv-x="1737" d="M55 501q10 90 141 90h236v1041h1243v-187h-1039v-854h699q18 2 33 2q102 0 111 -92q-9 -98 -110 -98q-10 0 -22 1h-711v-408h-204v408h-242q-126 0 -135 97z" />
<glyph unicode="G" horiz-adv-x="1621" d="M29 838q0 363 253.5 612.5t614.5 249.5q232 0 413 -110q84 -63 84 -129q0 -22 -10 -39q-27 -35 -76 -36q-41 0 -89 30q-106 90 -341 98q-271 0 -458.5 -196.5t-187.5 -471.5q0 -273 185.5 -468t456.5 -195h334v326q-2 18 -2 33q0 102 92 112q97 -9 97 -113q0 -10 -1 -21 v-432q-11 -93 -112 -93q-12 0 -25 1h-375q-353 0 -603 245.5t-250 596.5z" />
<glyph unicode="H" horiz-adv-x="1498" d="M0 -14v1634h204v-1035h790v1035h204v-1634h-204v413h-790v-413h-204z" />
<glyph unicode="I" horiz-adv-x="492" d="M-12 -14v1634h204v-1634h-204z" />
<glyph unicode="J" horiz-adv-x="1476" d="M45 318q0 67 53 90q18 6 37 6q65 0 101 -61q90 -221 345 -221h2q395 0 395 514v964h204v-1035q0 -277 -157 -451q-165 -183 -442 -183q-367 0 -524 306q-14 39 -14 71z" />
<glyph unicode="K" horiz-adv-x="1407" d="M-18 -14v1669h205v-1072l365 2l420 1070h202l-418 -1072q216 0 328 -188q96 -162 96 -409h-204q0 234 -69 323.5t-259 89.5h-461v-413h-205z" />
<glyph unicode="L" horiz-adv-x="1297" d="M-24 -14v1634h203v-1447h1040v-187h-1243z" />
<glyph unicode="M" horiz-adv-x="2020" d="M4 -16l334 1705l561 -1288l562 1288l334 -1705h-210l-191 1080h-4l-491 -1115l-489 1115h-4l-192 -1080h-210z" />
<glyph unicode="N" horiz-adv-x="1737" d="M4 -14v1712l1227 -1286v1210h202v-1703l-1227 1287v-1220h-202z" />
<glyph unicode="O" horiz-adv-x="2122" d="M0 774q0 351 252.5 601.5t603.5 250.5t603.5 -250.5t252.5 -601.5q0 -361 -249.5 -607t-606.5 -246t-606.5 245.5t-249.5 607.5zM204 774q0 -277 192.5 -469.5t459.5 -192.5q269 0 461.5 192.5t192.5 469.5q0 275 -183 465q-189 196 -471 196q-283 0 -467.5 -193 t-184.5 -468z" />
<glyph unicode="P" horiz-adv-x="1439" d="M-14 -10v1636h666q565 0 565 -473q0 -477 -571 -478h-457v-685h-203zM189 858l437 2q206 0 287 45q114 63 114 252q0 286 -396 286h-3h-439v-585z" />
<glyph unicode="Q" horiz-adv-x="2155" d="M27 856q0 350 252.5 601t604.5 251q351 0 603.5 -251t252.5 -601q0 -324 -208 -561l153 -154l-136 -135l-159 159q-224 -161 -506 -161q-357 0 -607 245.5t-250 606.5zM230 856q0 -277 193.5 -469.5t460.5 -192.5q198 0 363 112l-157 159l135 136l163 -163 q148 180 148 418q0 275 -185 468.5t-467 193.5q-283 0 -468.5 -193.5t-185.5 -468.5z" />
<glyph unicode="R" horiz-adv-x="1549" d="M-22 -10v1671h199q348 0 447 -10q226 -22 336 -110q132 -106 132 -329q0 -94 -47 -181q-49 -92 -128 -130v-4q141 -26 232.5 -140.5t91.5 -259.5v-507h-200v507q0 267 -394 267h-23h-16q-169 0 -182 80q2 27 16 47q29 49 108 59q138 0 232 53q120 69 119 207 q0 159 -102 219q-79 49 -245 50h-373v-1489h-203z" />
<glyph unicode="S" horiz-adv-x="966" d="M84 1157q0 100 51 206q84 179 248 247q41 18 76 18q57 0 87 -39q8 -12 8 -32q0 -63 -87 -128q-75 -39 -123 -109q-53 -77 -53 -158q0 -118 137 -274l2 1q204 -218 204 -410q0 -102 -49 -208q-81 -167 -226 -238q-41 -19 -75 -19h-3q-63 0 -89 55q-6 16 -5 33q0 75 88 116 q153 94 153 255q0 116 -137 273l-2 -2q-204 218 -205 413z" />
<glyph unicode="T" horiz-adv-x="1401" d="M8 1439v187h1247v-187h-523v-1449h-202v1449h-522z" />
<glyph unicode="U" horiz-adv-x="1494" d="M-2 591v1035h204v-964q0 -514 395 -515q395 0 395 515v964h204v-1035q0 -277 -159 -452q-164 -182 -437 -182h-3q-275 0 -440 182q-159 175 -159 452z" />
<glyph unicode="V" horiz-adv-x="1535" d="M0 1624h224l487 -1212l487 1212h222l-709 -1722z" />
<glyph unicode="W" horiz-adv-x="1786" d="M-279 1624h224l487 -1212l157 391l-338 821h224l222 -552l222 552h222l-336 -819l157 -393l485 1212h224l-709 -1722l-265 642l-265 -642z" />
<glyph unicode="X" horiz-adv-x="1390" d="M12 -20l514 856l-451 778h231l334 -595l356 595h233l-471 -778l497 -856h-228l-387 670l-400 -670h-228z" />
<glyph unicode="Y" horiz-adv-x="1468" d="M-6 1019v605h204v-536q0 -514 395 -515q395 0 395 515v536h204v-605q0 -249 -130 -420q-135 -175 -365 -208v-411h-204v411q-232 33 -365.5 206t-133.5 422z" />
<glyph unicode="Z" horiz-adv-x="1390" d="M39 -20l829 1448h-711v186h1043l-829 -1447h829v-187h-1161z" />
<glyph unicode="[" horiz-adv-x="706" d="M126 -395v2052h388v-173h-200v-1708h200v-171h-388z" />
<glyph unicode="\" horiz-adv-x="1217" d="M63 1777h173l826 -1777h-171z" />
<glyph unicode="]" horiz-adv-x="814" d="M124 -224h200v1708h-200v173h388v-2052h-388v171z" />
<glyph unicode="^" horiz-adv-x="1521" d="M67 630l410 913h230l408 -913h-192l-332 743l-334 -743h-190z" />
<glyph unicode="_" horiz-adv-x="956" d="M0 -153h1025v-102h-1025v102z" />
<glyph unicode="`" horiz-adv-x="848" d="M155 1848l171 90l255 -340l-90 -55z" />
<glyph unicode="a" d="M-106 501q10 90 141 90l254 2v438q0 277 159 451q165 183 440 183t439 -183q157 -175 157 -451v-1035h-202v410h-789v-410h-204v410h-260q-126 0 -135 95zM493 593h789v367q0 514 -394 515q-395 0 -395 -515v-367z" />
<glyph unicode="b" horiz-adv-x="1411" d="M-14 -4v1636h201q346 0 445 -10q226 -24 336 -110q134 -106 134 -330q0 -94 -48 -181q-49 -92 -129 -129v-4q141 -26 234.5 -147.5t93.5 -266.5q0 -230 -177 -352q-153 -106 -393 -106h-697zM190 179h472h3q384 0 384 288q0 265 -388 265h-29h-16q-170 0 -182 83 q2 27 16 47q31 49 108 57q137 0 231 55q120 69 120 206q0 157 -102 220q-79 49 -243 49h-374v-1270z" />
<glyph unicode="c" horiz-adv-x="1504" d="M8 838q0 363 254 612.5t616 249.5q232 0 412 -110q84 -63 84 -129q1 -21 -9 -39q-27 -35 -77 -36q-41 0 -90 30q-104 90 -340 98q-271 0 -458.5 -196.5t-187.5 -471.5q0 -273 185 -465q187 -198 457 -198q63 2 120 11q134 24 210 81q45 33 86 33q47 0 81 -41 q14 -24 14 -51q0 -61 -75 -106q-192 -114 -430 -114q-351 0 -601.5 245.5t-250.5 596.5z" />
<glyph unicode="d" horiz-adv-x="1669" d="M6 -4v1636h338q399 0 648 -201q271 -217 271 -608q0 -403 -269 -623q-249 -204 -656 -204h-332zM210 183h71q348 0 546 137q231 161 231 493q0 334 -231 495q-198 137 -546 137h-71v-1262z" />
<glyph unicode="e" horiz-adv-x="1804" d="M-132 579q10 90 142 91h288q-12 58 -15 112q-2 33 -2 65q1 318 215 559q236 265 598 292q9 1 18 1q107 0 115 -91q-9 -96 -120 -96h-13q-273 -18 -450 -228q-161 -191 -160 -433q0 -25 1 -50q6 -67 24 -131h820q17 2 33 2q103 0 111 -93q-9 -97 -109 -97q-11 0 -23 1 h-752q94 -147 244 -230q137 -74 292 -73q22 0 45 1q71 14 128 29q141 39 194 85q47 39 91 39q45 -1 76 -36q18 -26 18 -55q0 -57 -67 -104q-187 -128 -422 -143q-32 -2 -62 -2q-231 0 -432 118q-227 134 -335 371h-355q-126 0 -136 96z" />
<glyph unicode="f" horiz-adv-x="1737" d="M55 501q10 90 141 90h236v1041h1243v-187h-1039v-854h699q18 2 33 2q102 0 111 -92q-9 -98 -110 -98q-11 0 -22 1h-711v-408h-204v408h-242q-126 0 -135 97z" />
<glyph unicode="g" horiz-adv-x="1621" d="M29 838q0 363 253.5 612.5t614.5 249.5q232 0 413 -110q84 -63 84 -129q0 -22 -10 -39q-27 -35 -76 -36q-41 0 -89 30q-106 90 -341 98q-271 0 -458.5 -196.5t-187.5 -471.5q0 -273 185.5 -468t456.5 -195h334v326q-2 18 -2 33q0 102 92 112q97 -9 97 -113q0 -10 -1 -21 v-432q-11 -93 -112 -93q-12 0 -25 1h-375q-353 0 -603 245.5t-250 596.5z" />
<glyph unicode="h" horiz-adv-x="1498" d="M0 -14v1634h204v-1035h790v1035h204v-1634h-204v413h-790v-413h-204z" />
<glyph unicode="i" horiz-adv-x="492" d="M-12 -14v1634h204v-1634h-204z" />
<glyph unicode="j" horiz-adv-x="1476" d="M45 318q0 67 53 90q18 6 37 6q65 0 101 -61q90 -221 345 -221h2q395 0 395 514v964h204v-1035q0 -277 -157 -451q-165 -183 -442 -183q-367 0 -524 306q-14 39 -14 71z" />
<glyph unicode="k" horiz-adv-x="1407" d="M-18 -14v1669h205v-1072l365 2l420 1070h202l-418 -1072q216 0 328 -188q96 -162 96 -409h-204q0 234 -69 323.5t-259 89.5h-461v-413h-205z" />
<glyph unicode="l" horiz-adv-x="1297" d="M-24 -14v1634h203v-1447h1040v-187h-1243z" />
<glyph unicode="m" horiz-adv-x="2020" d="M4 -16l334 1705l561 -1288l562 1288l334 -1705h-210l-191 1080h-4l-491 -1115l-489 1115h-4l-192 -1080h-210z" />
<glyph unicode="n" horiz-adv-x="1737" d="M4 -14v1712l1227 -1286v1210h202v-1703l-1227 1287v-1220h-202z" />
<glyph unicode="o" horiz-adv-x="2122" d="M0 774q0 351 252.5 601.5t603.5 250.5t603.5 -250.5t252.5 -601.5q0 -361 -249.5 -607t-606.5 -246t-606.5 245.5t-249.5 607.5zM204 774q0 -277 192.5 -469.5t459.5 -192.5q269 0 461.5 192.5t192.5 469.5q0 275 -183 465q-189 196 -471 196q-283 0 -467.5 -193 t-184.5 -468z" />
<glyph unicode="p" horiz-adv-x="1439" d="M-14 -10v1636h666q565 0 565 -473q0 -477 -571 -478h-457v-685h-203zM189 858l437 2q206 0 287 45q114 63 114 252q0 286 -396 286h-3h-439v-585z" />
<glyph unicode="q" horiz-adv-x="2155" d="M27 856q0 350 252.5 601t604.5 251q351 0 603.5 -251t252.5 -601q0 -324 -208 -561l153 -154l-136 -135l-159 159q-224 -161 -506 -161q-357 0 -607 245.5t-250 606.5zM230 856q0 -277 193.5 -469.5t460.5 -192.5q198 0 363 112l-157 159l135 136l163 -163 q148 180 148 418q0 275 -185 468.5t-467 193.5q-283 0 -468.5 -193.5t-185.5 -468.5z" />
<glyph unicode="r" horiz-adv-x="1549" d="M-22 -10v1671h199q348 0 447 -10q226 -22 336 -110q132 -106 132 -329q0 -94 -47 -181q-49 -92 -128 -130v-4q141 -26 232.5 -140.5t91.5 -259.5v-507h-200v507q0 267 -394 267h-23h-16q-169 0 -182 80q2 27 16 47q29 49 108 59q138 0 232 53q120 69 119 207 q0 159 -102 219q-79 49 -245 50h-373v-1489h-203z" />
<glyph unicode="s" horiz-adv-x="966" d="M84 1157q0 100 51 206q84 179 248 247q41 18 76 18q57 0 87 -39q8 -12 8 -32q0 -63 -87 -128q-75 -39 -123 -109q-53 -77 -53 -158q0 -118 137 -274l2 1q204 -218 204 -410q0 -102 -49 -208q-81 -167 -226 -238q-41 -19 -75 -19h-3q-63 0 -89 55q-6 16 -5 33q0 75 88 116 q153 94 153 255q0 116 -137 273l-2 -2q-204 218 -205 413z" />
<glyph unicode="t" horiz-adv-x="1401" d="M8 1439v187h1247v-187h-523v-1449h-202v1449h-522z" />
<glyph unicode="u" horiz-adv-x="1494" d="M-2 591v1035h204v-964q0 -514 395 -515q395 0 395 515v964h204v-1035q0 -277 -159 -452q-164 -182 -437 -182h-3q-275 0 -440 182q-159 175 -159 452z" />
<glyph unicode="v" horiz-adv-x="1535" d="M0 1624h224l487 -1212l487 1212h222l-709 -1722z" />
<glyph unicode="w" horiz-adv-x="1786" d="M-279 1624h224l487 -1212l157 391l-338 821h224l222 -552l222 552h222l-336 -819l157 -393l485 1212h224l-709 -1722l-265 642l-265 -642z" />
<glyph unicode="x" horiz-adv-x="1390" d="M12 -20l514 856l-451 778h231l334 -595l356 595h233l-471 -778l497 -856h-228l-387 670l-400 -670h-228z" />
<glyph unicode="y" horiz-adv-x="1468" d="M-6 1019v605h204v-536q0 -514 395 -515q395 0 395 515v536h204v-605q0 -249 -130 -420q-135 -175 -365 -208v-411h-204v411q-232 33 -365.5 206t-133.5 422z" />
<glyph unicode="z" horiz-adv-x="1390" d="M39 -20l829 1448h-711v186h1043l-829 -1447h829v-187h-1161z" />
<glyph unicode="{" horiz-adv-x="783" d="M98 556v149q153 67 153 308v373q0 112 65 197q55 75 110 74h159v-173h-80q-43 0 -57 -37q-8 -24 -8 -88v-377q0 -245 -155 -354q47 -29 88 -92q67 -108 67 -257v-377q0 -65 8 -89q14 -39 57 -39h80v-171h-159q-55 0 -110 73q-65 84 -65 196v373q0 242 -153 311z" />
<glyph unicode="|" horiz-adv-x="973" d="M495 -438v2048h177v-2048h-177z" />
<glyph unicode="}" horiz-adv-x="738" d="M98 -226h83q41 0 55 39q8 24 7 89v377q0 149 69 257q39 63 87 92q-155 108 -156 354v377q0 65 -7 88q-14 37 -55 37h-83v173h159q55 0 110 -74q65 -84 65 -197v-373q0 -242 153 -308v-149q-153 -69 -153 -311v-373q0 -112 -65 -196q-55 -73 -110 -73h-159v171z" />
<glyph unicode="~" horiz-adv-x="1529" d="M67 465q86 122 129 165q88 86 185 87q86 0 177 -55q27 -16 137 -100q71 -53 108 -53q51 0 94 49q20 24 83 125l135 -102q-135 -249 -310 -249q-84 0 -235.5 104t-184.5 104q-84 0 -189 -167z" />
<glyph unicode="&#xa1;" horiz-adv-x="722" d="M210 1426q0 49 35.5 83t84.5 34t83.5 -34t34.5 -83t-34.5 -84.5t-83.5 -35.5t-84.5 35t-35.5 85zM238 -33v1188h184v-1188h-184z" />
<glyph unicode="&#xa2;" horiz-adv-x="1242" d="M204 772q0 192 119 336.5t307 173.5v159h98v-155q151 -8 252 -63v-235h-6q-94 126 -246 127v-671q149 22 252 127v-239q-110 -51 -216 -57l-36 -2v-175h-98v183q-187 29 -306.5 165.5t-119.5 325.5zM385 780q0 -114 67.5 -210t177.5 -120v654q-104 -14 -174.5 -115 t-70.5 -209z" />
<glyph unicode="&#xa3;" horiz-adv-x="1060" d="M-206 727v111h179l-2 425q24 112 74 192q122 190 356 190q232 0 406 -214q73 -90 130 -216l-124 -82q-210 324 -395 324q-187 0 -239 -194v-425h239v-111h-239v-554l846 14v-187l-1049 -14l-3 741h-179z" />
<glyph unicode="&#xa4;" horiz-adv-x="1702" d="M0 605v147h212q-6 43 -6 86t4 85h-210v147h238q77 279 308.5 454.5t529.5 175.5q232 0 412 -110q84 -63 85 -129q0 -21 -10 -39q-27 -35 -77 -36q-41 0 -88 30q-106 90 -342 98q-210 0 -379 -126q-161 -122 -229 -318h750l-39 -147h-745q-4 -37 -4 -77q0 -47 8 -94h682 l-40 -147h-604q71 -189 227 -303q165 -120 369 -119q63 2 120 11q135 24 210 81q45 33 87 33q47 0 80 -41q14 -24 14 -51q0 -61 -75 -106q-192 -114 -430 -114q-287 0 -513.5 170t-304.5 439h-240z" />
<glyph unicode="&#xa5;" horiz-adv-x="1468" d="M-6 1337v287h204v-218q0 -512 395 -513q395 0 395 513v218h204v-287q0 -249 -130 -418q-135 -177 -365 -210v-147h318v-120h-318v-124h318v-120h-318v-218h-204v218h-255v120h255v124h-255v120h255v147q-232 33 -365.5 206t-133.5 422z" />
<glyph unicode="&#xa8;" horiz-adv-x="748" d="M43 1675q0 49 35.5 84.5t84.5 35.5t83.5 -35.5t34.5 -84.5t-34.5 -83.5t-83.5 -34.5t-84.5 34.5t-35.5 83.5zM454 1675q0 49 35 84.5t84 35.5t83.5 -35.5t34.5 -84.5t-34.5 -83.5t-83.5 -34.5t-84 34.5t-35 83.5z" />
<glyph unicode="&#xa9;" horiz-adv-x="2036" d="M12 772q0 338 234.5 571.5t572.5 233.5t572.5 -233.5t234.5 -571.5q0 -336 -234.5 -570.5t-572.5 -234.5t-572.5 234.5t-234.5 570.5zM143 772q0 -283 198.5 -478.5t477.5 -195.5t477 195.5t198 478.5q0 285 -198 479t-477 194t-477.5 -194.5t-198.5 -478.5zM403 778 q0 204 120.5 334.5t326.5 130.5q143 0 247.5 -81.5t131.5 -222.5h-125q-37 173 -256 172q-155 0 -239 -104q-75 -89 -75 -225q0 -147 83 -238q86 -98 235 -98q208 0 252 182h125q-18 -141 -125.5 -226.5t-251.5 -85.5q-200 0 -326 136q-124 130 -123 326z" />
<glyph unicode="&#xad;" horiz-adv-x="999" d="M116 579v153h450v-153h-450z" />
<glyph unicode="&#xae;" horiz-adv-x="2036" d="M12 772q0 338 234.5 571.5t572.5 233.5t572.5 -233.5t234.5 -571.5q0 -336 -234.5 -570.5t-572.5 -234.5t-572.5 234.5t-234.5 570.5zM143 772q0 -283 198.5 -478.5t477.5 -195.5t477 195.5t198 478.5q0 285 -198 479t-477 194t-477.5 -194.5t-198.5 -478.5zM509 314v905 h380q311 1 311 -239q0 -126 -75 -191q-65 -55 -167 -59l230 -416h-149l-232 416h-169v-416h-129zM638 862h140q163 0 192 6q98 17 98 96t-61 104q-43 20 -143 20h-226v-226z" />
<glyph unicode="&#xaf;" horiz-adv-x="999" d="M116 1471v153h450v-153h-450z" />
<glyph unicode="&#xb4;" horiz-adv-x="848" d="M155 1598l257 340l169 -90l-336 -305z" />
<glyph unicode="&#xb7;" horiz-adv-x="388" d="M179 719q0 49 34 84t83 35t84.5 -35t35.5 -84t-35 -83.5t-85 -34.5q-49 0 -83 34.5t-34 83.5z" />
<glyph unicode="&#xb8;" horiz-adv-x="1504" d="M432 -340q0 29 23.5 50t53.5 21q41 0 60 -39q12 -20 64 -47.5t97 -27.5q94 0 95 65q0 43 -108 80.5t-98 98.5q6 75 31 239q12 59 69 59q35 0 57.5 -24.5t14.5 -63.5q-8 -37 -19 -167q79 -27 133 -85q65 -64 65 -137q0 -106 -82 -163q-65 -47 -158 -47q-79 0 -180 53 q-118 61 -118 135z" />
<glyph unicode="&#xbf;" horiz-adv-x="1105" d="M106 330q0 157 110 253q67 57 255 116q149 45 149 149q0 61 -41 104.5t-102 43.5q-65 0 -106 -46.5t-39 -111.5h-187q-6 132 96.5 231t235.5 99q137 0 233.5 -95t96.5 -233q0 -165 -133 -245l-248 -102q-134 -59 -133 -169q0 -84 53 -133.5t135 -49.5q73 0 125 52t52 125 q0 20 -14 65h192l4 -67q10 -147 -103 -248t-262 -101q-157 0 -263 104t-106 259zM357 1459q0 49 35.5 83.5t84.5 34.5t83.5 -34.5t34.5 -83.5t-34.5 -84.5t-83.5 -35.5t-84.5 35.5t-35.5 84.5z" />
<glyph unicode="&#xc0;" d="M-106 501q10 90 141 90l254 2v438q0 277 159 451q165 183 440 183t439 -183q157 -175 157 -451v-1035h-202v410h-789v-410h-204v410h-260q-126 0 -135 95zM493 593h789v367q0 514 -394 515q-395 0 -395 -515v-367zM630 2048l171 88l255 -339l-90 -55z" />
<glyph unicode="&#xc1;" d="M-106 501q10 90 141 90l254 2v438q0 277 159 451q165 183 440 183t439 -183q157 -175 157 -451v-1035h-202v410h-789v-410h-204v410h-260q-126 0 -135 95zM493 593h789v367q0 514 -394 515q-395 0 -395 -515v-367zM691 1808l255 342l171 -90l-335 -307z" />
<glyph unicode="&#xc2;" d="M-106 501q10 90 141 90l254 2v438q0 277 159 451q165 183 440 183t439 -183q157 -175 157 -451v-1035h-202v410h-789v-410h-204v410h-260q-126 0 -135 95zM493 593h789v367q0 514 -394 515q-395 0 -395 -515v-367zM536 1726l310 558h22l310 -558l-59 -20l-263 297 l-263 -297z" />
<glyph unicode="&#xc3;" d="M-106 501q10 90 141 90l254 2v438q0 277 159 451q165 183 440 183t439 -183q157 -175 157 -451v-1035h-202v410h-789v-410h-204v410h-260q-126 0 -135 95zM485 1901q67 98 102 131q69 67 145 67q88 0 196.5 -81.5t135.5 -81.5q41 0 75 39q16 18 63 99l108 -81 q-106 -196 -244 -196q-67 0 -185.5 82.5t-146.5 82.5q-67 0 -147 -134zM493 593h789v367q0 514 -394 515q-395 0 -395 -515v-367z" />
<glyph unicode="&#xc4;" d="M-106 501q10 90 141 90l254 2v438q0 277 159 451q165 183 440 183t439 -183q157 -175 157 -451v-1035h-202v410h-789v-410h-204v410h-260q-126 0 -135 95zM493 593h789v367q0 514 -394 515q-395 0 -395 -515v-367zM550 1869q0 47 34.5 82.5t83.5 35.5t84 -35.5t35 -82.5 q0 -49 -35 -84t-84 -35t-83.5 35t-34.5 84zM960 1869q0 47 34.5 82.5t83.5 35.5t84.5 -35.5t35.5 -82.5q0 -49 -35.5 -84t-84.5 -35t-83.5 35t-34.5 84z" />
<glyph unicode="&#xc5;" d="M-106 501q10 90 141 90l254 2v438q0 277 159 451q165 183 440 183t439 -183q157 -175 157 -451v-1035h-202v410h-789v-410h-204v410h-260q-126 0 -135 95zM493 593h789v367q0 514 -394 515q-395 0 -395 -515v-367zM707 1930q0 75 53 128t128 53t127.5 -53t52.5 -128 t-53 -127.5t-127 -52.5q-75 0 -128 53t-53 127zM805 1926q0 -33 22.5 -55.5t56.5 -22.5q33 0 56.5 22.5t23.5 55.5t-23.5 57t-56.5 24t-56 -23.5t-23 -57.5z" />
<glyph unicode="&#xc7;" horiz-adv-x="1504" d="M8 838q0 363 254 612.5t616 249.5q232 0 412 -110q84 -63 84 -129q1 -21 -9 -39q-27 -35 -77 -36q-41 0 -90 30q-104 90 -340 98q-271 0 -458.5 -196.5t-187.5 -471.5q0 -273 185 -465q187 -198 457 -198q63 2 120 11q134 24 210 81q45 33 86 33q47 0 81 -41 q14 -24 14 -51q0 -61 -75 -106q-192 -114 -430 -114q-38 0 -78 4q-4 -31 -10 -96q79 -27 133 -85q65 -65 65 -137q0 -106 -82 -163q-65 -47 -158 -47q-79 0 -180 53q-118 61 -118 135q0 29 23.5 50t53.5 21q41 0 60 -39q12 -20 64 -47.5t97 -27.5q94 0 95 65q0 43 -108 80.5 t-98 98.5q6 55 19 165q-275 73 -449 294q-181 228 -181 518z" />
<glyph unicode="&#xc8;" horiz-adv-x="1804" d="M-132 579q10 90 142 91h288q-12 58 -15 112q-24 359 212.5 624t598.5 292q124 8 133 -90q-10 -102 -133 -96q-273 -18 -450 -228t-159 -483q6 -67 24 -131h820q134 16 144 -91q-10 -108 -132 -96h-752q94 -147 244 -230q157 -84 337 -72q71 14 128 29q141 39 194 85 q47 39 91 39q45 -1 76 -36q18 -26 18 -55q0 -57 -67 -104q-187 -128 -422 -143q-267 -18 -494 116.5t-335 370.5h-355q-126 0 -136 96zM620 2064l171 90l256 -340l-91 -55z" />
<glyph unicode="&#xc9;" horiz-adv-x="1804" d="M-132 579q10 90 142 91h288q-12 58 -15 112q-24 359 212.5 624t598.5 292q124 8 133 -90q-10 -102 -133 -96q-273 -18 -450 -228t-159 -483q6 -67 24 -131h820q134 16 144 -91q-10 -108 -132 -96h-752q94 -147 244 -230q157 -84 337 -72q71 14 128 29q141 39 194 85 q47 39 91 39q45 -1 76 -36q18 -26 18 -55q0 -57 -67 -104q-187 -128 -422 -143q-267 -18 -494 116.5t-335 370.5h-355q-126 0 -136 96zM850 1806l255 342l171 -90l-335 -306z" />
<glyph unicode="&#xca;" horiz-adv-x="1804" d="M-132 579q10 90 142 91h288q-12 58 -15 112q-24 359 212.5 624t598.5 292q124 8 133 -90q-10 -102 -133 -96q-273 -18 -450 -228t-159 -483q6 -67 24 -131h820q134 16 144 -91q-10 -108 -132 -96h-752q94 -147 244 -230q157 -84 337 -72q71 14 128 29q141 39 194 85 q47 39 91 39q45 -1 76 -36q18 -26 18 -55q0 -57 -67 -104q-187 -128 -422 -143q-267 -18 -494 116.5t-335 370.5h-355q-126 0 -136 96zM644 1771l310 560h22l310 -560l-59 -19l-261 296l-263 -296z" />
<glyph unicode="&#xcb;" horiz-adv-x="1804" d="M-132 579q10 90 142 91h288q-12 58 -15 112q-24 359 212.5 624t598.5 292q124 8 133 -90q-10 -102 -133 -96q-273 -18 -450 -228t-159 -483q6 -67 24 -131h820q134 16 144 -91q-10 -108 -132 -96h-752q94 -147 244 -230q157 -84 337 -72q71 14 128 29q141 39 194 85 q47 39 91 39q45 -1 76 -36q18 -26 18 -55q0 -57 -67 -104q-187 -128 -422 -143q-267 -18 -494 116.5t-335 370.5h-355q-126 0 -136 96zM615 1875q0 47 34 82.5t83 35.5t84.5 -35.5t35.5 -82.5q0 -49 -35 -84.5t-85 -35.5q-49 0 -83 35.5t-34 84.5zM1025 1875q0 47 35.5 82.5 t82.5 35.5q49 0 84.5 -35.5t35.5 -82.5q0 -49 -35.5 -84.5t-84.5 -35.5t-83.5 35.5t-34.5 84.5z" />
<glyph unicode="&#xcc;" horiz-adv-x="492" d="M-216 2054l171 90l255 -339l-90 -55zM-12 -14v1634h204v-1634h-204z" />
<glyph unicode="&#xcd;" horiz-adv-x="492" d="M-12 -14v1634h204v-1634h-204zM-6 1759l255 342l171 -90l-336 -307z" />
<glyph unicode="&#xce;" horiz-adv-x="492" d="M-218 1726l310 558h22l310 -558l-59 -20l-261 297l-265 -297zM-12 -14v1634h204v-1634h-204z" />
<glyph unicode="&#xcf;" horiz-adv-x="492" d="M-257 1801q0 47 35 82t85 35q49 0 83 -35t34 -82q0 -51 -34 -85.5t-83 -34.5t-84.5 34.5t-35.5 85.5zM-12 -14v1634h204v-1634h-204zM153 1801q0 47 35.5 82t84.5 35t83.5 -35t34.5 -82q0 -51 -34.5 -85.5t-83.5 -34.5t-84.5 34.5t-35.5 85.5z" />
<glyph unicode="&#xd0;" horiz-adv-x="1828" d="M0 750v136h163v746h340q397 0 646 -201q271 -217 271 -608q0 -403 -269 -623q-247 -204 -656 -204h-332v754h-163zM367 183h73q346 0 544 137q231 161 231 493q0 334 -231 495q-198 137 -544 137h-73v-559h240v-136h-240v-567z" />
<glyph unicode="&#xd1;" horiz-adv-x="1737" d="M4 -14v1712l1227 -1286v1210h202v-1703l-1227 1287v-1220h-202zM285 1793q67 96 100 129q71 69 145 69q88 0 196.5 -82.5t135.5 -82.5q41 0 75 39q16 18 64 99l108 -81q-108 -196 -245 -196q-65 0 -184.5 82.5t-145.5 82.5q-67 0 -149 -132z" />
<glyph unicode="&#xd2;" horiz-adv-x="2122" d="M0 774q0 351 252.5 601.5t603.5 250.5t603.5 -250.5t252.5 -601.5q0 -361 -249.5 -607t-606.5 -246t-606.5 245.5t-249.5 607.5zM204 774q0 -277 192.5 -469.5t459.5 -192.5q269 0 461.5 192.5t192.5 469.5q0 275 -183 465q-189 196 -471 196q-283 0 -467.5 -193 t-184.5 -468zM611 2021l169 90l257 -340l-91 -55z" />
<glyph unicode="&#xd3;" horiz-adv-x="2122" d="M0 774q0 351 252.5 601.5t603.5 250.5t603.5 -250.5t252.5 -601.5q0 -361 -249.5 -607t-606.5 -246t-606.5 245.5t-249.5 607.5zM204 774q0 -277 192.5 -469.5t459.5 -192.5q269 0 461.5 192.5t192.5 469.5q0 275 -183 465q-189 196 -471 196q-283 0 -467.5 -193 t-184.5 -468zM715 1757l255 342l171 -90l-336 -307z" />
<glyph unicode="&#xd4;" horiz-adv-x="2122" d="M0 774q0 351 252.5 601.5t603.5 250.5t603.5 -250.5t252.5 -601.5q0 -361 -249.5 -607t-606.5 -246t-606.5 245.5t-249.5 607.5zM204 774q0 -277 192.5 -469.5t459.5 -192.5q269 0 461.5 192.5t192.5 469.5q0 275 -183 465q-189 196 -471 196q-283 0 -467.5 -193 t-184.5 -468zM536 1726l310 558h22l310 -558l-59 -20l-263 297l-263 -297z" />
<glyph unicode="&#xd5;" horiz-adv-x="2122" d="M0 774q0 351 252.5 601.5t603.5 250.5t603.5 -250.5t252.5 -601.5q0 -361 -249.5 -607t-606.5 -246t-606.5 245.5t-249.5 607.5zM204 774q0 -277 192.5 -469.5t459.5 -192.5q269 0 461.5 192.5t192.5 469.5q0 275 -183 465q-189 196 -471 196q-283 0 -467.5 -193 t-184.5 -468zM412 1861q67 98 102 132q69 67 146 67q86 0 195 -81.5t137 -81.5q41 0 72 37q18 20 65 100l108 -80q-106 -196 -243 -197q-67 0 -187 82.5t-145 82.5q-67 0 -148 -133z" />
<glyph unicode="&#xd6;" horiz-adv-x="2122" d="M0 774q0 351 252.5 601.5t603.5 250.5t603.5 -250.5t252.5 -601.5q0 -361 -249.5 -607t-606.5 -246t-606.5 245.5t-249.5 607.5zM204 774q0 -277 192.5 -469.5t459.5 -192.5q269 0 461.5 192.5t192.5 469.5q0 275 -183 465q-189 196 -471 196q-283 0 -467.5 -193 t-184.5 -468zM511 1824q0 47 35 82.5t82 35.5q49 0 84.5 -35.5t35.5 -82.5q0 -49 -35.5 -84.5t-84.5 -35.5t-83 35.5t-34 84.5zM921 1824q0 47 35.5 82.5t82.5 35.5q49 0 84.5 -35.5t35.5 -82.5q0 -49 -34.5 -84.5t-85.5 -35.5q-49 0 -83.5 35.5t-34.5 84.5z" />
<glyph unicode="&#xd7;" horiz-adv-x="1403" d="M159 216l308 308l-308 309l124 125l308 -310l310 310l124 -125l-308 -309l308 -308l-124 -126l-310 311l-308 -311z" />
<glyph unicode="&#xd8;" horiz-adv-x="2122" d="M0 774q0 351 252.5 601.5t603.5 250.5q153 0 297 -53l84 194l147 -67l-86 -198q189 -114 300 -304q114 -196 114 -424q0 -361 -249.5 -607t-606.5 -246q-118 0 -230 30l-96 -220l-145 65l90 212q-216 104 -343 304q-132 208 -132 462zM204 774q0 -190 98 -350 q92 -153 252 -235l524 1209q-106 37 -222 37q-283 0 -467.5 -193t-184.5 -468zM703 132q77 -20 153 -20q269 0 461.5 192.5t192.5 469.5q0 171 -76.5 317t-212.5 236z" />
<glyph unicode="&#xd9;" horiz-adv-x="1494" d="M-2 591v1035h204v-964q0 -514 395 -515q395 0 395 515v964h204v-1035q0 -277 -159 -452q-165 -183 -440 -182q-275 0 -440 182q-159 175 -159 452zM263 1964l171 90l255 -342l-90 -55z" />
<glyph unicode="&#xda;" horiz-adv-x="1494" d="M-2 591v1035h204v-964q0 -514 395 -515q395 0 395 515v964h204v-1035q0 -277 -159 -452q-165 -183 -440 -182q-275 0 -440 182q-159 175 -159 452zM469 1732l256 340l170 -91l-335 -306z" />
<glyph unicode="&#xdb;" horiz-adv-x="1494" d="M-2 591v1035h204v-964q0 -514 395 -515q395 0 395 515v964h204v-1035q0 -277 -159 -452q-165 -183 -440 -182q-275 0 -440 182q-159 175 -159 452zM281 1726l310 558h22l310 -558l-59 -20l-263 297l-263 -297z" />
<glyph unicode="&#xdc;" horiz-adv-x="1494" d="M-2 591v1035h204v-964q0 -514 395 -515q395 0 395 515v964h204v-1035q0 -277 -159 -452q-165 -183 -440 -182q-275 0 -440 182q-159 175 -159 452zM296 1861q0 49 35.5 84.5t82.5 35.5q49 0 84.5 -35.5t35.5 -84.5t-35.5 -83t-84.5 -34t-83.5 34t-34.5 83zM707 1861 q0 49 35.5 84.5t82.5 35.5q49 0 84 -35.5t35 -84.5t-35 -83t-84 -34t-83.5 34t-34.5 83z" />
<glyph unicode="&#xdd;" horiz-adv-x="1468" d="M-6 1019v605h204v-536q0 -514 395 -515q395 0 395 515v536h204v-605q0 -249 -130 -420q-135 -175 -365 -208v-411h-204v411q-232 33 -365.5 206t-133.5 422zM487 1698l257 342l169 -90l-336 -306z" />
<glyph unicode="&#xde;" horiz-adv-x="1439" d="M-14 -10v1600h203v-284h463q565 0 565 -471q0 -477 -571 -478h-457v-367h-203zM189 538l437 2q206 0 287 45q114 63 114 253q0 285 -399 285l-439 2v-587z" />
<glyph unicode="&#xdf;" horiz-adv-x="1411" d="M-14 -334v1449q12 149 51 258q92 259 311 259q267 0 349 -10q190 -24 285 -110q120 -108 120 -330q0 -94 -48 -181q-49 -92 -129 -129v-4q141 -26 234.5 -147.5t93.5 -266.5q0 -230 -177 -352q-153 -106 -393 -106h-332v177h311q387 0 387 294q0 275 -417 265 q-185 -4 -198 83q2 27 16 47q31 49 108 57q137 0 231 55q120 69 120 206q0 157 -102 220q-79 49 -243 49q-373 0 -374 -363l-1 -1420h-203z" />
<glyph unicode="&#xe0;" d="M-106 501q10 90 141 90l254 2v438q0 277 159 451q165 183 440 183t439 -183q157 -175 157 -451v-1035h-202v410h-789v-410h-204v410h-260q-126 0 -135 95zM493 593h789v367q0 514 -394 515q-395 0 -395 -515v-367zM630 2048l171 88l255 -339l-90 -55z" />
<glyph unicode="&#xe1;" d="M-106 501q10 90 141 90l254 2v438q0 277 159 451q165 183 440 183t439 -183q157 -175 157 -451v-1035h-202v410h-789v-410h-204v410h-260q-126 0 -135 95zM493 593h789v367q0 514 -394 515q-395 0 -395 -515v-367zM691 1808l255 342l171 -90l-335 -307z" />
<glyph unicode="&#xe2;" d="M-106 501q10 90 141 90l254 2v438q0 277 159 451q165 183 440 183t439 -183q157 -175 157 -451v-1035h-202v410h-789v-410h-204v410h-260q-126 0 -135 95zM493 593h789v367q0 514 -394 515q-395 0 -395 -515v-367zM536 1726l310 558h22l310 -558l-59 -20l-263 297 l-263 -297z" />
<glyph unicode="&#xe3;" d="M-106 501q10 90 141 90l254 2v438q0 277 159 451q165 183 440 183t439 -183q157 -175 157 -451v-1035h-202v410h-789v-410h-204v410h-260q-126 0 -135 95zM485 1901q67 98 102 131q69 67 145 67q88 0 196.5 -81.5t135.5 -81.5q41 0 75 39q16 18 63 99l108 -81 q-106 -196 -244 -196q-67 0 -185.5 82.5t-146.5 82.5q-67 0 -147 -134zM493 593h789v367q0 514 -394 515q-395 0 -395 -515v-367z" />
<glyph unicode="&#xe4;" d="M-106 501q10 90 141 90l254 2v438q0 277 159 451q165 183 440 183t439 -183q157 -175 157 -451v-1035h-202v410h-789v-410h-204v410h-260q-126 0 -135 95zM493 593h789v367q0 514 -394 515q-395 0 -395 -515v-367zM550 1869q0 47 34.5 82.5t83.5 35.5t84 -35.5t35 -82.5 q0 -49 -35 -84t-84 -35t-83.5 35t-34.5 84zM960 1869q0 47 34.5 82.5t83.5 35.5t84.5 -35.5t35.5 -82.5q0 -49 -35.5 -84t-84.5 -35t-83.5 35t-34.5 84z" />
<glyph unicode="&#xe5;" d="M-106 501q10 90 141 90l254 2v438q0 277 159 451q165 183 440 183t439 -183q157 -175 157 -451v-1035h-202v410h-789v-410h-204v410h-260q-126 0 -135 95zM493 593h789v367q0 514 -394 515q-395 0 -395 -515v-367zM707 1930q0 75 53 128t128 53t127.5 -53t52.5 -128 t-53 -127.5t-127 -52.5q-75 0 -128 53t-53 127zM805 1926q0 -33 22.5 -55.5t56.5 -22.5q33 0 56.5 22.5t23.5 55.5t-23.5 57t-56.5 24t-56 -23.5t-23 -57.5z" />
<glyph unicode="&#xe7;" horiz-adv-x="1504" d="M8 838q0 363 254 612.5t616 249.5q232 0 412 -110q84 -63 84 -129q1 -21 -9 -39q-27 -35 -77 -36q-41 0 -90 30q-104 90 -340 98q-271 0 -458.5 -196.5t-187.5 -471.5q0 -273 185 -465q187 -198 457 -198q63 2 120 11q134 24 210 81q45 33 86 33q47 0 81 -41 q14 -24 14 -51q0 -61 -75 -106q-192 -114 -430 -114q-38 0 -78 4q-4 -31 -10 -96q79 -27 133 -85q65 -65 65 -137q0 -106 -82 -163q-65 -47 -158 -47q-79 0 -180 53q-118 61 -118 135q0 29 23.5 50t53.5 21q41 0 60 -39q12 -20 64 -47.5t97 -27.5q94 0 95 65q0 43 -108 80.5 t-98 98.5q6 55 19 165q-275 73 -449 294q-181 228 -181 518z" />
<glyph unicode="&#xe8;" horiz-adv-x="1804" d="M-132 579q10 90 142 91h288q-12 58 -15 112q-24 359 212.5 624t598.5 292q124 8 133 -90q-10 -102 -133 -96q-273 -18 -450 -228t-159 -483q6 -67 24 -131h820q134 16 144 -91q-10 -108 -132 -96h-752q94 -147 244 -230q157 -84 337 -72q71 14 128 29q141 39 194 85 q47 39 91 39q45 -1 76 -36q18 -26 18 -55q0 -57 -67 -104q-187 -128 -422 -143q-267 -18 -494 116.5t-335 370.5h-355q-126 0 -136 96zM620 2064l171 90l256 -340l-91 -55z" />
<glyph unicode="&#xe9;" horiz-adv-x="1804" d="M-132 579q10 90 142 91h288q-12 58 -15 112q-24 359 212.5 624t598.5 292q124 8 133 -90q-10 -102 -133 -96q-273 -18 -450 -228t-159 -483q6 -67 24 -131h820q134 16 144 -91q-10 -108 -132 -96h-752q94 -147 244 -230q157 -84 337 -72q71 14 128 29q141 39 194 85 q47 39 91 39q45 -1 76 -36q18 -26 18 -55q0 -57 -67 -104q-187 -128 -422 -143q-267 -18 -494 116.5t-335 370.5h-355q-126 0 -136 96zM850 1806l255 342l171 -90l-335 -306z" />
<glyph unicode="&#xea;" horiz-adv-x="1804" d="M-132 579q10 90 142 91h288q-12 58 -15 112q-24 359 212.5 624t598.5 292q124 8 133 -90q-10 -102 -133 -96q-273 -18 -450 -228t-159 -483q6 -67 24 -131h820q134 16 144 -91q-10 -108 -132 -96h-752q94 -147 244 -230q157 -84 337 -72q71 14 128 29q141 39 194 85 q47 39 91 39q45 -1 76 -36q18 -26 18 -55q0 -57 -67 -104q-187 -128 -422 -143q-267 -18 -494 116.5t-335 370.5h-355q-126 0 -136 96zM644 1771l310 560h22l310 -560l-59 -19l-261 296l-263 -296z" />
<glyph unicode="&#xeb;" horiz-adv-x="1804" d="M-132 579q10 90 142 91h288q-12 58 -15 112q-24 359 212.5 624t598.5 292q124 8 133 -90q-10 -102 -133 -96q-273 -18 -450 -228t-159 -483q6 -67 24 -131h820q134 16 144 -91q-10 -108 -132 -96h-752q94 -147 244 -230q157 -84 337 -72q71 14 128 29q141 39 194 85 q47 39 91 39q45 -1 76 -36q18 -26 18 -55q0 -57 -67 -104q-187 -128 -422 -143q-267 -18 -494 116.5t-335 370.5h-355q-126 0 -136 96zM615 1875q0 47 34 82.5t83 35.5t84.5 -35.5t35.5 -82.5q0 -49 -35 -84.5t-85 -35.5q-49 0 -83 35.5t-34 84.5zM1025 1875q0 47 35.5 82.5 t82.5 35.5q49 0 84.5 -35.5t35.5 -82.5q0 -49 -35.5 -84.5t-84.5 -35.5t-83.5 35.5t-34.5 84.5z" />
<glyph unicode="&#xec;" horiz-adv-x="492" d="M-216 2054l171 90l255 -339l-90 -55zM-12 -14v1634h204v-1634h-204z" />
<glyph unicode="&#xed;" horiz-adv-x="492" d="M-12 -14v1634h204v-1634h-204zM-6 1759l255 342l171 -90l-336 -307z" />
<glyph unicode="&#xee;" horiz-adv-x="492" d="M-218 1726l310 558h22l310 -558l-59 -20l-261 297l-265 -297zM-12 -14v1634h204v-1634h-204z" />
<glyph unicode="&#xef;" horiz-adv-x="492" d="M-257 1801q0 47 35 82t85 35q49 0 83 -35t34 -82q0 -51 -34 -85.5t-83 -34.5t-84.5 34.5t-35.5 85.5zM-12 -14v1634h204v-1634h-204zM153 1801q0 47 35.5 82t84.5 35t83.5 -35t34.5 -82q0 -51 -34.5 -85.5t-83.5 -34.5t-84.5 34.5t-35.5 85.5z" />
<glyph unicode="&#xf0;" horiz-adv-x="1828" d="M0 750v136h163v746h340q397 0 646 -201q271 -217 271 -608q0 -403 -269 -623q-247 -204 -656 -204h-332v754h-163zM367 183h73q346 0 544 137q231 161 231 493q0 334 -231 495q-198 137 -544 137h-73v-559h240v-136h-240v-567z" />
<glyph unicode="&#xf1;" horiz-adv-x="1737" d="M4 -14v1712l1227 -1286v1210h202v-1703l-1227 1287v-1220h-202zM285 1793q67 96 100 129q71 69 145 69q88 0 196.5 -82.5t135.5 -82.5q41 0 75 39q16 18 64 99l108 -81q-108 -196 -245 -196q-65 0 -184.5 82.5t-145.5 82.5q-67 0 -149 -132z" />
<glyph unicode="&#xf2;" horiz-adv-x="2122" d="M0 774q0 351 252.5 601.5t603.5 250.5t603.5 -250.5t252.5 -601.5q0 -361 -249.5 -607t-606.5 -246t-606.5 245.5t-249.5 607.5zM204 774q0 -277 192.5 -469.5t459.5 -192.5q269 0 461.5 192.5t192.5 469.5q0 275 -183 465q-189 196 -471 196q-283 0 -467.5 -193 t-184.5 -468zM611 2021l169 90l257 -340l-91 -55z" />
<glyph unicode="&#xf3;" horiz-adv-x="2122" d="M0 774q0 351 252.5 601.5t603.5 250.5t603.5 -250.5t252.5 -601.5q0 -361 -249.5 -607t-606.5 -246t-606.5 245.5t-249.5 607.5zM204 774q0 -277 192.5 -469.5t459.5 -192.5q269 0 461.5 192.5t192.5 469.5q0 275 -183 465q-189 196 -471 196q-283 0 -467.5 -193 t-184.5 -468zM715 1757l255 342l171 -90l-336 -307z" />
<glyph unicode="&#xf4;" horiz-adv-x="2122" d="M0 774q0 351 252.5 601.5t603.5 250.5t603.5 -250.5t252.5 -601.5q0 -361 -249.5 -607t-606.5 -246t-606.5 245.5t-249.5 607.5zM204 774q0 -277 192.5 -469.5t459.5 -192.5q269 0 461.5 192.5t192.5 469.5q0 275 -183 465q-189 196 -471 196q-283 0 -467.5 -193 t-184.5 -468zM536 1726l310 558h22l310 -558l-59 -20l-263 297l-263 -297z" />
<glyph unicode="&#xf5;" horiz-adv-x="2122" d="M0 774q0 351 252.5 601.5t603.5 250.5t603.5 -250.5t252.5 -601.5q0 -361 -249.5 -607t-606.5 -246t-606.5 245.5t-249.5 607.5zM204 774q0 -277 192.5 -469.5t459.5 -192.5q269 0 461.5 192.5t192.5 469.5q0 275 -183 465q-189 196 -471 196q-283 0 -467.5 -193 t-184.5 -468zM412 1861q67 98 102 132q69 67 146 67q86 0 195 -81.5t137 -81.5q41 0 72 37q18 20 65 100l108 -80q-106 -196 -243 -197q-67 0 -187 82.5t-145 82.5q-67 0 -148 -133z" />
<glyph unicode="&#xf6;" horiz-adv-x="2122" d="M0 774q0 351 252.5 601.5t603.5 250.5t603.5 -250.5t252.5 -601.5q0 -361 -249.5 -607t-606.5 -246t-606.5 245.5t-249.5 607.5zM204 774q0 -277 192.5 -469.5t459.5 -192.5q269 0 461.5 192.5t192.5 469.5q0 275 -183 465q-189 196 -471 196q-283 0 -467.5 -193 t-184.5 -468zM511 1824q0 47 35 82.5t82 35.5q49 0 84.5 -35.5t35.5 -82.5q0 -49 -35.5 -84.5t-84.5 -35.5t-83 35.5t-34 84.5zM921 1824q0 47 35.5 82.5t82.5 35.5q49 0 84.5 -35.5t35.5 -82.5q0 -49 -34.5 -84.5t-85.5 -35.5q-49 0 -83.5 35.5t-34.5 84.5z" />
<glyph unicode="&#xf8;" horiz-adv-x="2122" d="M0 774q0 351 252.5 601.5t603.5 250.5q153 0 297 -53l84 194l147 -67l-86 -198q189 -114 300 -304q114 -196 114 -424q0 -361 -249.5 -607t-606.5 -246q-118 0 -230 30l-96 -220l-145 65l90 212q-216 104 -343 304q-132 208 -132 462zM204 774q0 -190 98 -350 q92 -153 252 -235l524 1209q-106 37 -222 37q-283 0 -467.5 -193t-184.5 -468zM703 132q77 -20 153 -20q269 0 461.5 192.5t192.5 469.5q0 171 -76.5 317t-212.5 236z" />
<glyph unicode="&#xf9;" horiz-adv-x="1494" d="M-2 591v1035h204v-964q0 -514 395 -515q395 0 395 515v964h204v-1035q0 -277 -159 -452q-165 -183 -440 -182q-275 0 -440 182q-159 175 -159 452zM263 1964l171 90l255 -342l-90 -55z" />
<glyph unicode="&#xfa;" horiz-adv-x="1494" d="M-2 591v1035h204v-964q0 -514 395 -515q395 0 395 515v964h204v-1035q0 -277 -159 -452q-165 -183 -440 -182q-275 0 -440 182q-159 175 -159 452zM469 1732l256 340l170 -91l-335 -306z" />
<glyph unicode="&#xfb;" horiz-adv-x="1494" d="M-2 591v1035h204v-964q0 -514 395 -515q395 0 395 515v964h204v-1035q0 -277 -159 -452q-165 -183 -440 -182q-275 0 -440 182q-159 175 -159 452zM281 1726l310 558h22l310 -558l-59 -20l-263 297l-263 -297z" />
<glyph unicode="&#xfc;" horiz-adv-x="1494" d="M-2 591v1035h204v-964q0 -514 395 -515q395 0 395 515v964h204v-1035q0 -277 -159 -452q-165 -183 -440 -182q-275 0 -440 182q-159 175 -159 452zM296 1861q0 49 35.5 84.5t82.5 35.5q49 0 84.5 -35.5t35.5 -84.5t-35.5 -83t-84.5 -34t-83.5 34t-34.5 83zM707 1861 q0 49 35.5 84.5t82.5 35.5q49 0 84 -35.5t35 -84.5t-35 -83t-84 -34t-83.5 34t-34.5 83z" />
<glyph unicode="&#xfd;" horiz-adv-x="1468" d="M-6 1019v605h204v-536q0 -514 395 -515q395 0 395 515v536h204v-605q0 -249 -130 -420q-135 -175 -365 -208v-411h-204v411q-232 33 -365.5 206t-133.5 422zM487 1698l257 342l169 -90l-336 -306z" />
<glyph unicode="&#xfe;" horiz-adv-x="1439" d="M-14 -10v1600h203v-284h463q565 0 565 -471q0 -477 -571 -478h-457v-367h-203zM189 538l437 2q206 0 287 45q114 63 114 253q0 285 -399 285l-439 2v-587z" />
<glyph unicode="&#xff;" horiz-adv-x="1468" d="M-6 1019v605h204v-536q0 -514 395 -515q395 0 395 515v536h204v-605q0 -249 -130 -420q-135 -175 -365 -208v-411h-204v411q-232 33 -365.5 206t-133.5 422zM263 1801q0 47 35.5 82t82.5 35q49 0 84.5 -35t35.5 -82q0 -49 -35.5 -84.5t-84.5 -35.5t-83.5 35.5t-34.5 84.5 zM674 1801q0 47 35 82t82 35q49 0 84.5 -35t35.5 -82q0 -49 -35.5 -84.5t-84.5 -35.5t-83 35.5t-34 84.5z" />
<glyph unicode="&#x178;" horiz-adv-x="1468" d="M-6 1019v605h204v-536q0 -514 395 -515q395 0 395 515v536h204v-605q0 -249 -130 -420q-135 -175 -365 -208v-411h-204v411q-232 33 -365.5 206t-133.5 422zM263 1801q0 47 35.5 82t82.5 35q49 0 84.5 -35t35.5 -82q0 -49 -35.5 -84.5t-84.5 -35.5t-83.5 35.5t-34.5 84.5 zM674 1801q0 47 35 82t82 35q49 0 84.5 -35t35.5 -82q0 -49 -35.5 -84.5t-84.5 -35.5t-83 35.5t-34 84.5z" />
<glyph unicode="&#x2c6;" d="M536 1726l310 558h22l310 -558l-59 -20l-263 297l-263 -297z" />
<glyph unicode="&#x2dc;" horiz-adv-x="944" d="M33 1714q67 98 102 132q69 67 146 67q88 0 196 -81.5t136 -81.5q41 0 74 39q16 18 65 98l108 -81q-108 -196 -245 -196q-67 0 -186 82.5t-146 82.5q-67 0 -148 -133z" />
<glyph unicode="&#x2000;" horiz-adv-x="1165" />
<glyph unicode="&#x2001;" horiz-adv-x="2331" />
<glyph unicode="&#x2002;" horiz-adv-x="1165" />
<glyph unicode="&#x2003;" horiz-adv-x="2331" />
<glyph unicode="&#x2004;" horiz-adv-x="777" />
<glyph unicode="&#x2005;" horiz-adv-x="582" />
<glyph unicode="&#x2006;" horiz-adv-x="388" />
<glyph unicode="&#x2007;" horiz-adv-x="388" />
<glyph unicode="&#x2008;" horiz-adv-x="291" />
<glyph unicode="&#x2009;" horiz-adv-x="466" />
<glyph unicode="&#x200a;" horiz-adv-x="129" />
<glyph unicode="&#x2010;" horiz-adv-x="999" d="M116 579v153h450v-153h-450z" />
<glyph unicode="&#x2011;" horiz-adv-x="999" d="M116 579v153h450v-153h-450z" />
<glyph unicode="&#x2012;" horiz-adv-x="999" d="M116 579v153h450v-153h-450z" />
<glyph unicode="&#x2013;" horiz-adv-x="999" d="M116 579v153h450v-153h-450z" />
<glyph unicode="&#x2014;" horiz-adv-x="1932" d="M116 579v153h1249v-153h-1249z" />
<glyph unicode="&#x2018;" horiz-adv-x="726" d="M124 1031l271 546l116 -47l-226 -564z" />
<glyph unicode="&#x2019;" horiz-adv-x="653" d="M57 1013l226 564l161 -63l-271 -548z" />
<glyph unicode="&#x201a;" horiz-adv-x="653" d="M57 -275l226 564l161 -63l-271 -548z" />
<glyph unicode="&#x201c;" horiz-adv-x="1066" d="M124 1031l271 546l116 -47l-226 -564zM463 1031l271 546l116 -47l-226 -564z" />
<glyph unicode="&#x201d;" horiz-adv-x="985" d="M49 1013l226 564l161 -63l-273 -548zM389 1013l226 564l161 -63l-271 -548z" />
<glyph unicode="&#x201e;" horiz-adv-x="985" d="M49 -263l226 563l161 -64l-273 -546zM389 -263l226 563l161 -64l-271 -546z" />
<glyph unicode="&#x2022;" horiz-adv-x="1413" d="M206 772q0 161 112 274t273 113q163 0 276 -113t113 -274q0 -159 -115 -272t-274 -113q-157 0 -270 112t-115 273z" />
<glyph unicode="&#x202f;" horiz-adv-x="466" />
<glyph unicode="&#x205f;" horiz-adv-x="582" />
<glyph unicode="&#x2122;" horiz-adv-x="2152" d="M69 1414v129h697v-129h-283v-733h-132v733h-282zM923 681v862h216l247 -606l256 606h214v-862h-132v733h-4l-294 -733h-81l-287 733h-4v-733h-131z" />
<glyph unicode="&#x25fc;" horiz-adv-x="1610" d="M0 0v1610h1610v-1610h-1610z" />
</font>
</defs>
</svg>
